<svg xmlns="http://www.w3.org/2000/svg" viewBox="0 0 32 32">
  <rect x="0.75" y="0.75" width="30.5" height="30.5" rx="8" fill="#0d1014" stroke="#313742" stroke-width="1.2" />
  <path
    d="M6 18.5 L7.3 13.6c.35-1.3 1.55-2.2 2.9-2.2h1l1.6-2.3c.5-.72 1.32-1.15 2.2-1.15h5.3c.88 0 1.7.43 2.2 1.15l1.6 2.3h1c1.35 0 2.55.9 2.9 2.2l1.3 4.9Z"
    fill="#2dd4bf"
  />
  <circle cx="11" cy="19.2" r="2.15" fill="#0d1014" stroke="#f3f6f8" stroke-width="1.5" />
  <circle cx="22" cy="19.2" r="2.15" fill="#0d1014" stroke="#f3f6f8" stroke-width="1.5" />
  <rect x="5.5" y="25" width="3" height="3.2" rx="1" fill="#ff5a36" />
  <rect x="10.5" y="23.4" width="3" height="4.8" rx="1" fill="#ffb020" />
  <rect x="15.5" y="21.8" width="3" height="6.4" rx="1" fill="#2dd4bf" />
  <rect x="20.5" y="24.2" width="3" height="4" rx="1" fill="#1a8f82" />
</svg>
